<svg width="435" height="435" viewBox="0 0 435 435" fill="none" xmlns="http://www.w3.org/2000/svg">
<path d="M219.503 404.488H214.512V434.627H219.503V404.488Z" fill="#DC071D"/>
<path d="M194.504 10.1239L195.659 10L197.433 26.886L196.278 27.0098L194.504 10.1239Z" fill="black"/>
<path d="M237.73 409.327L236.581 409.449L238.362 426.323L239.511 426.202L237.73 409.327Z" fill="black"/>
<path d="M174.019 13.3498L172.888 13.5858L176.349 30.197L177.48 29.961L174.019 13.3498Z" fill="black"/>
<path d="M257.716 406.083L256.584 406.312L259.964 422.983L261.096 422.753L257.716 406.083Z" fill="black"/>
<path d="M152.749 18.9349L151.651 19.2914L156.891 35.4723L157.99 35.1159L152.749 18.9349Z" fill="black"/>
<path d="M277.126 400.774L276.028 401.131L281.268 417.312L282.367 416.955L277.126 400.774Z" fill="black"/>
<path d="M131.182 27.2163L132.213 26.7621L139.144 42.2857L138.113 42.7398L131.182 27.2163Z" fill="black"/>
<path d="M295.944 393.588L294.889 394.058L301.796 409.6L302.851 409.13L295.944 393.588Z" fill="black"/>
<path d="M93.2715 49.2217L94.179 48.5199L104.203 62.2681L103.255 62.97L93.2715 49.2217Z" fill="black"/>
<path d="M329.812 374.019L330.76 373.358L340.785 387.107L339.836 387.767L329.812 374.019Z" fill="black"/>
<path d="M76.2341 63.0525L77.1004 62.2681L88.486 74.9016L87.6197 75.6861L76.2341 63.0525Z" fill="black"/>
<path d="M345.57 361.427L346.436 360.642L357.822 373.276L356.955 374.019L345.57 361.427Z" fill="black"/>
<path d="M60.7646 78.5761L61.5072 77.7091L74.1716 89.0627L73.4291 89.9297L60.7646 78.5761Z" fill="black"/>
<path d="M360.623 346.414L359.852 347.274L372.502 358.634L373.274 357.774L360.623 346.414Z" fill="black"/>
<path d="M46.9863 95.6272L47.6464 94.7189L61.4246 104.71L60.7646 105.618L46.9863 95.6272Z" fill="black"/>
<path d="M372.59 331.618L373.291 330.71L387.028 340.66L386.368 341.609L372.59 331.618Z" fill="black"/>
<path d="M35.0645 114.041L35.642 113.05L50.369 121.555L49.8327 122.546L35.0645 114.041Z" fill="black"/>
<path d="M383.646 314.773L384.223 313.783L398.95 322.287L398.414 323.278L383.646 314.773Z" fill="black"/>
<path d="M25.1641 133.569L25.6178 132.537L41.1699 139.432L40.7161 140.464L25.1641 133.569Z" fill="black"/>
<path d="M392.845 296.897L393.34 295.823L408.892 302.718L408.397 303.791L392.845 296.897Z" fill="black"/>
<path d="M17.3262 154.047L17.6974 152.932L33.8683 158.217L33.5383 159.29L17.3262 154.047Z" fill="black"/>
<path d="M400.147 278.111L400.518 277.038L416.689 282.281L416.317 283.355L400.147 278.111Z" fill="black"/>
<path d="M11.7158 175.227L11.9633 174.071L28.6292 177.621L28.3817 178.736L11.7158 175.227Z" fill="black"/>
<path d="M405.427 258.666L405.633 257.551L422.299 261.102L422.093 262.216L405.427 258.666Z" fill="black"/>
<path d="M8.33301 196.861L8.45676 195.705L25.3702 197.48L25.2877 198.636L8.33301 196.861Z" fill="black"/>
<path d="M408.645 238.807L408.768 237.692L425.682 239.468L425.558 240.582L408.645 238.807Z" fill="black"/>
<path d="M8.45676 240.582L8.33301 239.468L25.2877 237.692L25.3702 238.807L8.45676 240.582Z" fill="black"/>
<path d="M408.768 198.636L408.645 197.48L425.558 195.705L425.682 196.861L408.768 198.636Z" fill="black"/>
<path d="M28.4217 257.555L11.752 261.077L11.9905 262.208L28.6603 258.686L28.4217 257.555Z" fill="black"/>
<path d="M405.633 178.736L405.427 177.621L422.093 174.071L422.299 175.227L405.633 178.736Z" fill="black"/>
<path d="M17.6974 283.355L17.3262 282.281L33.5383 277.038L33.8683 278.111L17.6974 283.355Z" fill="black"/>
<path d="M400.518 159.29L400.147 158.217L416.317 152.932L416.689 154.047L400.518 159.29Z" fill="black"/>
<path d="M25.6178 303.791L25.1641 302.718L40.7161 295.823L41.1699 296.897L25.6178 303.791Z" fill="black"/>
<path d="M393.34 140.464L392.845 139.432L408.397 132.496L408.851 133.569L393.34 140.464Z" fill="black"/>
<path d="M60.7575 330.693L46.9814 340.655L47.6579 341.592L61.434 331.63L60.7575 330.693Z" fill="black"/>
<path d="M373.291 105.618L372.59 104.71L386.368 94.7189L387.028 95.6272L373.291 105.618Z" fill="black"/>
<path d="M61.5072 358.578L60.7646 357.711L73.4291 346.399L74.1716 347.224L61.5072 358.578Z" fill="black"/>
<path d="M360.627 89.9297L359.843 89.0627L372.508 77.7091L373.291 78.5761L360.627 89.9297Z" fill="black"/>
<path d="M87.6076 360.637L76.2153 373.26L77.0725 374.034L88.4648 361.412L87.6076 360.637Z" fill="black"/>
<path d="M346.436 75.6448L345.57 74.9016L356.955 62.2681L357.822 63.0525L346.436 75.6448Z" fill="black"/>
<path d="M94.179 387.767L93.2715 387.107L103.255 373.358L104.203 374.019L94.179 387.767Z" fill="black"/>
<path d="M330.76 62.97L329.853 62.2681L339.836 48.5199L340.785 49.2217L330.76 62.97Z" fill="black"/>
<path d="M132.213 409.525L131.182 409.071L138.113 393.547L139.144 394.001L132.213 409.525Z" fill="black"/>
<path d="M301.82 26.7581L294.891 42.2901L295.946 42.7614L302.875 27.2293L301.82 26.7581Z" fill="black"/>
<path d="M156.956 400.838L151.58 416.975L152.675 417.34L158.051 401.204L156.956 400.838Z" fill="black"/>
<path d="M281.255 18.9463L276.014 35.1273L277.113 35.4838L282.353 19.3028L281.255 18.9463Z" fill="black"/>
<path d="M173.961 422.943L172.847 422.695L176.395 406.098L177.508 406.305L173.961 422.943Z" fill="black"/>
<path d="M257.661 30.2301L256.506 29.9824L260.054 13.3442L261.209 13.5919L257.661 30.2301Z" fill="black"/>
<path d="M195.659 426.328L194.504 426.163L196.278 409.277L197.433 409.401L195.659 426.328Z" fill="black"/>
<path d="M237.737 27.0098L236.582 26.886L238.355 10L239.51 10.1239L237.737 27.0098Z" fill="black"/>
<path d="M327.749 404.364L310.959 375.67L306.669 378.189L323.417 406.841L327.749 404.364Z" fill="#DC071D"/>
<path d="M59.0731 124.362L30.2378 107.765L27.7627 112.059L56.5567 128.615L59.0731 124.362Z" fill="#DC071D"/>
<path d="M127.346 58.1808L110.556 29.5283L106.307 32.0055L123.014 60.658L127.346 58.1808Z" fill="#DC071D"/>
<path d="M219.459 35.3331L219.245 2.12449L214.326 2.14529L214.469 35.3127L219.459 35.3331Z" fill="#DC071D"/>
<path d="M374.735 124.404L403.571 107.807L406.087 112.1L377.293 128.656L374.735 124.404Z" fill="#DC071D"/>
<path d="M306.463 58.2221L323.252 29.5696L327.543 32.0467L310.794 60.6992L306.463 58.2221Z" fill="#DC071D"/>
<path d="M59.5682 311.553L30.7329 328.191L28.2166 323.856L57.0106 307.301L59.5682 311.553Z" fill="#DC071D"/>
<path d="M127.841 377.735L111.051 406.428L106.761 403.91L123.509 375.299L127.841 377.735Z" fill="#DC071D"/>
<path d="M375.189 311.512L404.066 328.109L406.541 323.815L377.747 307.259L375.189 311.512Z" fill="#DC071D"/>
<path d="M33.2905 215.425H0V220.379H33.2905V215.425Z" fill="#DC071D"/>
<path d="M434.056 215.425H403.859V220.379H434.056V215.425Z" fill="#DC071D"/>
</svg>
